<mxfile host="65bd71144e">
    <diagram id="Clc-EmOu-ant7V6aaL-I" name="Page-1">
        <mxGraphModel dx="2450" dy="1098" grid="1" gridSize="10" guides="1" tooltips="1" connect="1" arrows="1" fold="1" page="1" pageScale="1" pageWidth="850" pageHeight="1100" math="0" shadow="0">
            <root>
                <mxCell id="0"/>
                <mxCell id="1" parent="0"/>
                <mxCell id="11" value="c" style="edgeStyle=orthogonalEdgeStyle;html=1;strokeWidth=3;" parent="1" source="2" target="3" edge="1">
                    <mxGeometry relative="1" as="geometry"/>
                </mxCell>
                <mxCell id="2" value="" style="whiteSpace=wrap;html=1;" parent="1" vertex="1">
                    <mxGeometry x="270" y="415" width="90" height="140" as="geometry"/>
                </mxCell>
                <mxCell id="9" style="edgeStyle=orthogonalEdgeStyle;html=1;" parent="1" source="3" target="4" edge="1">
                    <mxGeometry relative="1" as="geometry">
                        <Array as="points">
                            <mxPoint x="630" y="485"/>
                            <mxPoint x="630" y="280"/>
                        </Array>
                    </mxGeometry>
                </mxCell>
                <mxCell id="33" value="6" style="edgeLabel;html=1;align=center;verticalAlign=middle;resizable=0;points=[];" parent="9" vertex="1" connectable="0">
                    <mxGeometry x="0.7688" y="-6" relative="1" as="geometry">
                        <mxPoint as="offset"/>
                    </mxGeometry>
                </mxCell>
                <mxCell id="43" style="edgeStyle=orthogonalEdgeStyle;html=1;entryX=0.5;entryY=1;entryDx=0;entryDy=0;strokeColor=#000000;strokeWidth=2;" parent="1" source="3" target="40" edge="1">
                    <mxGeometry relative="1" as="geometry"/>
                </mxCell>
                <mxCell id="45" value="26" style="edgeLabel;html=1;align=center;verticalAlign=middle;resizable=0;points=[];" parent="43" vertex="1" connectable="0">
                    <mxGeometry x="0.7659" relative="1" as="geometry">
                        <mxPoint as="offset"/>
                    </mxGeometry>
                </mxCell>
                <mxCell id="3" value="" style="whiteSpace=wrap;html=1;" parent="1" vertex="1">
                    <mxGeometry x="420" y="290" width="30" height="390" as="geometry"/>
                </mxCell>
                <mxCell id="24" style="edgeStyle=orthogonalEdgeStyle;html=1;entryX=1;entryY=0.5;entryDx=0;entryDy=0;strokeColor=#FF0000;" parent="1" source="4" target="5" edge="1">
                    <mxGeometry relative="1" as="geometry">
                        <mxPoint x="830" y="-70" as="targetPoint"/>
                        <Array as="points">
                            <mxPoint x="870" y="280"/>
                            <mxPoint x="870" y="10"/>
                            <mxPoint x="220" y="10"/>
                        </Array>
                    </mxGeometry>
                </mxCell>
                <mxCell id="4" value="" style="ellipse;whiteSpace=wrap;html=1;" parent="1" vertex="1">
                    <mxGeometry x="670" y="190" width="150" height="160" as="geometry"/>
                </mxCell>
                <mxCell id="26" style="edgeStyle=orthogonalEdgeStyle;html=1;strokeColor=#000000;entryX=-0.139;entryY=0.42;entryDx=0;entryDy=0;entryPerimeter=0;strokeWidth=3;" parent="1" source="5" target="16" edge="1">
                    <mxGeometry relative="1" as="geometry">
                        <mxPoint x="20" y="360" as="targetPoint"/>
                        <Array as="points">
                            <mxPoint x="40" y="160"/>
                            <mxPoint x="40" y="355"/>
                        </Array>
                    </mxGeometry>
                </mxCell>
                <mxCell id="5" value="" style="shape=trapezoid;perimeter=trapezoidPerimeter;whiteSpace=wrap;html=1;fixedSize=1;rotation=-90;" parent="1" vertex="1">
                    <mxGeometry x="180" y="140" width="80" height="40" as="geometry"/>
                </mxCell>
                <mxCell id="23" style="edgeStyle=orthogonalEdgeStyle;html=1;entryX=0.75;entryY=1;entryDx=0;entryDy=0;strokeWidth=3;" parent="1" source="6" target="5" edge="1">
                    <mxGeometry relative="1" as="geometry"/>
                </mxCell>
                <mxCell id="6" value="" style="shape=step;perimeter=stepPerimeter;whiteSpace=wrap;html=1;fixedSize=1;fontSize=9;direction=west;" parent="1" vertex="1">
                    <mxGeometry x="405.72" y="60" width="58.55" height="86" as="geometry"/>
                </mxCell>
                <mxCell id="13" value="" style="edgeStyle=segmentEdgeStyle;endArrow=classic;html=1;curved=0;rounded=0;endSize=8;startSize=8;sourcePerimeterSpacing=0;targetPerimeterSpacing=0;exitX=1.101;exitY=0.172;exitDx=0;exitDy=0;exitPerimeter=0;entryX=0.122;entryY=0.258;entryDx=0;entryDy=0;entryPerimeter=0;strokeWidth=3;" parent="1" source="3" target="6" edge="1">
                    <mxGeometry width="100" relative="1" as="geometry">
                        <mxPoint x="470" y="340" as="sourcePoint"/>
                        <mxPoint x="560" y="130" as="targetPoint"/>
                        <Array as="points">
                            <mxPoint x="520" y="357"/>
                            <mxPoint x="520" y="124"/>
                        </Array>
                    </mxGeometry>
                </mxCell>
                <mxCell id="32" value="32" style="edgeLabel;html=1;align=center;verticalAlign=middle;resizable=0;points=[];" parent="13" vertex="1" connectable="0">
                    <mxGeometry x="0.2417" y="2" relative="1" as="geometry">
                        <mxPoint as="offset"/>
                    </mxGeometry>
                </mxCell>
                <mxCell id="18" style="edgeStyle=orthogonalEdgeStyle;html=1;entryX=-0.032;entryY=0.175;entryDx=0;entryDy=0;entryPerimeter=0;strokeWidth=3;" parent="1" source="15" target="3" edge="1">
                    <mxGeometry relative="1" as="geometry"/>
                </mxCell>
                <mxCell id="22" style="edgeStyle=orthogonalEdgeStyle;html=1;entryX=0.25;entryY=1;entryDx=0;entryDy=0;strokeWidth=3;dashed=1;" parent="1" source="15" target="5" edge="1">
                    <mxGeometry relative="1" as="geometry">
                        <mxPoint x="340" y="170" as="targetPoint"/>
                        <Array as="points">
                            <mxPoint x="350" y="333"/>
                            <mxPoint x="350" y="180"/>
                        </Array>
                    </mxGeometry>
                </mxCell>
                <mxCell id="15" value="" style="shape=step;perimeter=stepPerimeter;whiteSpace=wrap;html=1;fixedSize=1;fontSize=9;direction=west;rotation=-180;" parent="1" vertex="1">
                    <mxGeometry x="250.00000000000003" y="290" width="58.55" height="86" as="geometry"/>
                </mxCell>
                <mxCell id="17" style="edgeStyle=orthogonalEdgeStyle;html=1;entryX=0.161;entryY=0.821;entryDx=0;entryDy=0;entryPerimeter=0;strokeWidth=3;" parent="1" source="16" target="15" edge="1">
                    <mxGeometry relative="1" as="geometry"/>
                </mxCell>
                <mxCell id="25" style="edgeStyle=orthogonalEdgeStyle;html=1;strokeColor=#000000;strokeWidth=3;" parent="1" source="16" target="2" edge="1">
                    <mxGeometry relative="1" as="geometry">
                        <mxPoint x="190" y="480" as="targetPoint"/>
                    </mxGeometry>
                </mxCell>
                <mxCell id="16" value="" style="whiteSpace=wrap;html=1;" parent="1" vertex="1">
                    <mxGeometry x="80" y="300" width="30" height="130" as="geometry"/>
                </mxCell>
                <mxCell id="20" style="edgeStyle=orthogonalEdgeStyle;html=1;entryX=0.284;entryY=0.291;entryDx=0;entryDy=0;entryPerimeter=0;strokeWidth=3;" parent="1" source="19" target="15" edge="1">
                    <mxGeometry relative="1" as="geometry"/>
                </mxCell>
                <mxCell id="19" value="4" style="ellipse;whiteSpace=wrap;html=1;" parent="1" vertex="1">
                    <mxGeometry x="170" y="300" width="40" height="40" as="geometry"/>
                </mxCell>
                <mxCell id="37" value="Suma el offset" style="ellipse;shape=cloud;whiteSpace=wrap;html=1;" parent="1" vertex="1">
                    <mxGeometry x="350" y="10" width="60" height="70" as="geometry"/>
                </mxCell>
                <mxCell id="39" value="Siftear por 2, es&lt;br&gt;equivalente a &lt;br&gt;multipleicar por 4,&lt;br&gt;util para alinear" style="ellipse;shape=cloud;whiteSpace=wrap;html=1;" parent="1" vertex="1">
                    <mxGeometry x="680" y="10" width="160" height="130" as="geometry"/>
                </mxCell>
                <mxCell id="44" value="28" style="edgeStyle=orthogonalEdgeStyle;html=1;strokeColor=#000000;strokeWidth=2;" parent="1" source="40" target="41" edge="1">
                    <mxGeometry y="-15" relative="1" as="geometry">
                        <mxPoint as="offset"/>
                    </mxGeometry>
                </mxCell>
                <mxCell id="40" value="Shift Left2" style="ellipse;whiteSpace=wrap;html=1;" parent="1" vertex="1">
                    <mxGeometry x="560" y="160" width="50" height="50" as="geometry"/>
                </mxCell>
                <mxCell id="42" value="32" style="edgeStyle=orthogonalEdgeStyle;html=1;entryX=0.122;entryY=0.73;entryDx=0;entryDy=0;entryPerimeter=0;strokeColor=#000000;strokeWidth=3;" parent="1" source="41" target="6" edge="1">
                    <mxGeometry relative="1" as="geometry"/>
                </mxCell>
                <mxCell id="41" value="Sign-extend" style="ellipse;whiteSpace=wrap;html=1;" parent="1" vertex="1">
                    <mxGeometry x="552.5" y="50" width="65" height="60" as="geometry"/>
                </mxCell>
                <mxCell id="46" value="J" style="text;html=1;align=center;verticalAlign=middle;resizable=0;points=[];autosize=1;strokeColor=none;fillColor=none;fontSize=45;" parent="1" vertex="1">
                    <mxGeometry x="30" y="30" width="50" height="70" as="geometry"/>
                </mxCell>
                <mxCell id="47" style="edgeStyle=orthogonalEdgeStyle;html=1;strokeWidth=3;" parent="1" source="48" target="53" edge="1">
                    <mxGeometry relative="1" as="geometry"/>
                </mxCell>
                <mxCell id="48" value="" style="whiteSpace=wrap;html=1;" parent="1" vertex="1">
                    <mxGeometry x="260" y="1165" width="90" height="140" as="geometry"/>
                </mxCell>
                <mxCell id="49" style="edgeStyle=orthogonalEdgeStyle;html=1;" parent="1" source="53" target="55" edge="1">
                    <mxGeometry relative="1" as="geometry">
                        <Array as="points">
                            <mxPoint x="490" y="1235"/>
                            <mxPoint x="490" y="1030"/>
                        </Array>
                    </mxGeometry>
                </mxCell>
                <mxCell id="50" value="6" style="edgeLabel;html=1;align=center;verticalAlign=middle;resizable=0;points=[];" parent="49" vertex="1" connectable="0">
                    <mxGeometry x="0.7688" y="-6" relative="1" as="geometry">
                        <mxPoint as="offset"/>
                    </mxGeometry>
                </mxCell>
                <mxCell id="80" value="5" style="edgeStyle=orthogonalEdgeStyle;html=1;entryX=0;entryY=0.25;entryDx=0;entryDy=0;strokeColor=#000000;strokeWidth=1;" parent="1" source="53" target="77" edge="1">
                    <mxGeometry relative="1" as="geometry"/>
                </mxCell>
                <mxCell id="53" value="" style="whiteSpace=wrap;html=1;" parent="1" vertex="1">
                    <mxGeometry x="410" y="1040" width="30" height="390" as="geometry"/>
                </mxCell>
                <mxCell id="79" style="edgeStyle=orthogonalEdgeStyle;html=1;entryX=-0.136;entryY=0.049;entryDx=0;entryDy=0;entryPerimeter=0;strokeColor=#FF0000;strokeWidth=1;" parent="1" source="55" target="78" edge="1">
                    <mxGeometry relative="1" as="geometry"/>
                </mxCell>
                <mxCell id="55" value="" style="ellipse;whiteSpace=wrap;html=1;" parent="1" vertex="1">
                    <mxGeometry x="552.5" y="960" width="150" height="160" as="geometry"/>
                </mxCell>
                <mxCell id="56" style="edgeStyle=orthogonalEdgeStyle;html=1;strokeColor=#000000;entryX=-0.139;entryY=0.42;entryDx=0;entryDy=0;entryPerimeter=0;strokeWidth=3;" parent="1" source="57" target="67" edge="1">
                    <mxGeometry relative="1" as="geometry">
                        <mxPoint x="10" y="1110" as="targetPoint"/>
                        <Array as="points">
                            <mxPoint x="30" y="910"/>
                            <mxPoint x="30" y="1105"/>
                        </Array>
                    </mxGeometry>
                </mxCell>
                <mxCell id="57" value="" style="shape=trapezoid;perimeter=trapezoidPerimeter;whiteSpace=wrap;html=1;fixedSize=1;rotation=-90;" parent="1" vertex="1">
                    <mxGeometry x="170" y="890" width="80" height="40" as="geometry"/>
                </mxCell>
                <mxCell id="62" style="edgeStyle=orthogonalEdgeStyle;html=1;entryX=-0.032;entryY=0.175;entryDx=0;entryDy=0;entryPerimeter=0;strokeWidth=3;dashed=1;" parent="1" source="64" target="53" edge="1">
                    <mxGeometry relative="1" as="geometry"/>
                </mxCell>
                <mxCell id="63" style="edgeStyle=orthogonalEdgeStyle;html=1;entryX=0.25;entryY=1;entryDx=0;entryDy=0;strokeWidth=3;dashed=1;" parent="1" source="64" target="57" edge="1">
                    <mxGeometry relative="1" as="geometry">
                        <mxPoint x="330" y="920" as="targetPoint"/>
                        <Array as="points">
                            <mxPoint x="340" y="1083"/>
                            <mxPoint x="340" y="930"/>
                        </Array>
                    </mxGeometry>
                </mxCell>
                <mxCell id="64" value="" style="shape=step;perimeter=stepPerimeter;whiteSpace=wrap;html=1;fixedSize=1;fontSize=9;direction=west;rotation=-180;dashed=1;" parent="1" vertex="1">
                    <mxGeometry x="240" y="1040" width="58.55" height="86" as="geometry"/>
                </mxCell>
                <mxCell id="65" style="edgeStyle=orthogonalEdgeStyle;html=1;entryX=0.161;entryY=0.821;entryDx=0;entryDy=0;entryPerimeter=0;strokeWidth=3;dashed=1;" parent="1" source="67" target="64" edge="1">
                    <mxGeometry relative="1" as="geometry"/>
                </mxCell>
                <mxCell id="66" style="edgeStyle=orthogonalEdgeStyle;html=1;strokeColor=#000000;strokeWidth=3;" parent="1" source="67" target="48" edge="1">
                    <mxGeometry relative="1" as="geometry">
                        <mxPoint x="180" y="1230" as="targetPoint"/>
                    </mxGeometry>
                </mxCell>
                <mxCell id="67" value="" style="whiteSpace=wrap;html=1;" parent="1" vertex="1">
                    <mxGeometry x="70" y="1050" width="30" height="130" as="geometry"/>
                </mxCell>
                <mxCell id="68" style="edgeStyle=orthogonalEdgeStyle;html=1;entryX=0.284;entryY=0.291;entryDx=0;entryDy=0;entryPerimeter=0;strokeWidth=3;dashed=1;" parent="1" source="69" target="64" edge="1">
                    <mxGeometry relative="1" as="geometry"/>
                </mxCell>
                <mxCell id="69" value="4" style="ellipse;whiteSpace=wrap;html=1;" parent="1" vertex="1">
                    <mxGeometry x="160" y="1050" width="40" height="40" as="geometry"/>
                </mxCell>
                <mxCell id="76" value="JR" style="text;html=1;align=center;verticalAlign=middle;resizable=0;points=[];autosize=1;strokeColor=none;fillColor=none;fontSize=42;" parent="1" vertex="1">
                    <mxGeometry x="25" y="820" width="70" height="60" as="geometry"/>
                </mxCell>
                <mxCell id="82" style="edgeStyle=orthogonalEdgeStyle;html=1;entryX=-0.205;entryY=0.605;entryDx=0;entryDy=0;entryPerimeter=0;strokeColor=#000000;strokeWidth=3;" parent="1" source="77" target="78" edge="1">
                    <mxGeometry relative="1" as="geometry"/>
                </mxCell>
                <mxCell id="77" value="" style="whiteSpace=wrap;html=1;" parent="1" vertex="1">
                    <mxGeometry x="567.5" y="1190" width="120" height="170" as="geometry"/>
                </mxCell>
                <mxCell id="90" style="edgeStyle=orthogonalEdgeStyle;html=1;entryX=0.5;entryY=1;entryDx=0;entryDy=0;strokeColor=#000000;strokeWidth=3;" parent="1" source="78" target="85" edge="1">
                    <mxGeometry relative="1" as="geometry">
                        <Array as="points">
                            <mxPoint x="830" y="1275"/>
                            <mxPoint x="830" y="1275"/>
                        </Array>
                    </mxGeometry>
                </mxCell>
                <mxCell id="78" value="" style="whiteSpace=wrap;html=1;" parent="1" vertex="1">
                    <mxGeometry x="790" y="1020" width="30" height="420" as="geometry"/>
                </mxCell>
                <mxCell id="84" value="" style="edgeStyle=segmentEdgeStyle;endArrow=classic;html=1;curved=0;rounded=0;endSize=8;startSize=8;sourcePerimeterSpacing=0;targetPerimeterSpacing=0;strokeColor=#FF0000;strokeWidth=1;exitX=0.947;exitY=0.048;exitDx=0;exitDy=0;exitPerimeter=0;" parent="1" source="78" target="57" edge="1">
                    <mxGeometry width="100" relative="1" as="geometry">
                        <mxPoint x="850" y="1040" as="sourcePoint"/>
                        <mxPoint x="210" y="820" as="targetPoint"/>
                        <Array as="points">
                            <mxPoint x="970" y="1040"/>
                            <mxPoint x="970" y="820"/>
                            <mxPoint x="210" y="820"/>
                        </Array>
                    </mxGeometry>
                </mxCell>
                <mxCell id="91" style="edgeStyle=orthogonalEdgeStyle;html=1;strokeColor=#000000;strokeWidth=3;entryX=0.75;entryY=1;entryDx=0;entryDy=0;" parent="1" source="85" target="57" edge="1">
                    <mxGeometry relative="1" as="geometry">
                        <mxPoint x="600" y="880" as="targetPoint"/>
                        <Array as="points">
                            <mxPoint x="940" y="1275"/>
                            <mxPoint x="940" y="890"/>
                        </Array>
                    </mxGeometry>
                </mxCell>
                <mxCell id="85" value="" style="shape=trapezoid;perimeter=trapezoidPerimeter;whiteSpace=wrap;html=1;fixedSize=1;rotation=90;" parent="1" vertex="1">
                    <mxGeometry x="850" y="1257.5" width="80" height="35" as="geometry"/>
                </mxCell>
                <mxCell id="92" value="No requiere aliniamiento,&lt;br&gt;ni suma de offset" style="ellipse;shape=cloud;whiteSpace=wrap;html=1;" parent="1" vertex="1">
                    <mxGeometry x="950" y="1140" width="170" height="130" as="geometry"/>
                </mxCell>
                <mxCell id="162" value="c" style="edgeStyle=orthogonalEdgeStyle;html=1;strokeWidth=3;" parent="1" source="163" target="168" edge="1">
                    <mxGeometry relative="1" as="geometry"/>
                </mxCell>
                <mxCell id="163" value="" style="whiteSpace=wrap;html=1;" parent="1" vertex="1">
                    <mxGeometry x="285" y="2055.14" width="90" height="140" as="geometry"/>
                </mxCell>
                <mxCell id="164" style="edgeStyle=orthogonalEdgeStyle;html=1;" parent="1" source="168" target="170" edge="1">
                    <mxGeometry relative="1" as="geometry">
                        <Array as="points">
                            <mxPoint x="645" y="2125.14"/>
                            <mxPoint x="645" y="1920.14"/>
                        </Array>
                    </mxGeometry>
                </mxCell>
                <mxCell id="165" value="6" style="edgeLabel;html=1;align=center;verticalAlign=middle;resizable=0;points=[];" parent="164" vertex="1" connectable="0">
                    <mxGeometry x="0.7688" y="-6" relative="1" as="geometry">
                        <mxPoint as="offset"/>
                    </mxGeometry>
                </mxCell>
                <mxCell id="166" style="edgeStyle=orthogonalEdgeStyle;html=1;entryX=0.5;entryY=1;entryDx=0;entryDy=0;strokeColor=#000000;strokeWidth=2;" parent="1" source="168" target="188" edge="1">
                    <mxGeometry relative="1" as="geometry"/>
                </mxCell>
                <mxCell id="167" value="26" style="edgeLabel;html=1;align=center;verticalAlign=middle;resizable=0;points=[];" parent="166" vertex="1" connectable="0">
                    <mxGeometry x="0.7659" relative="1" as="geometry">
                        <mxPoint as="offset"/>
                    </mxGeometry>
                </mxCell>
                <mxCell id="219" style="edgeStyle=orthogonalEdgeStyle;html=1;entryX=0.04;entryY=0.223;entryDx=0;entryDy=0;entryPerimeter=0;strokeColor=#000000;strokeWidth=3;" parent="1" source="168" target="192" edge="1">
                    <mxGeometry relative="1" as="geometry">
                        <Array as="points">
                            <mxPoint x="738" y="2000"/>
                            <mxPoint x="738" y="1997"/>
                        </Array>
                    </mxGeometry>
                </mxCell>
                <mxCell id="168" value="" style="whiteSpace=wrap;html=1;" parent="1" vertex="1">
                    <mxGeometry x="435" y="1930.14" width="30" height="390" as="geometry"/>
                </mxCell>
                <mxCell id="169" style="edgeStyle=orthogonalEdgeStyle;html=1;entryX=1;entryY=0.5;entryDx=0;entryDy=0;strokeColor=#FF0000;" parent="1" source="170" target="172" edge="1">
                    <mxGeometry relative="1" as="geometry">
                        <mxPoint x="845" y="1570.14" as="targetPoint"/>
                        <Array as="points">
                            <mxPoint x="885" y="1920.14"/>
                            <mxPoint x="885" y="1650.14"/>
                            <mxPoint x="235" y="1650.14"/>
                        </Array>
                    </mxGeometry>
                </mxCell>
                <mxCell id="193" style="edgeStyle=orthogonalEdgeStyle;html=1;entryX=-0.012;entryY=0.103;entryDx=0;entryDy=0;entryPerimeter=0;strokeColor=#FF0000;" parent="1" source="170" target="192" edge="1">
                    <mxGeometry relative="1" as="geometry">
                        <Array as="points">
                            <mxPoint x="900" y="1950"/>
                            <mxPoint x="900" y="1950"/>
                        </Array>
                    </mxGeometry>
                </mxCell>
                <mxCell id="208" style="edgeStyle=orthogonalEdgeStyle;html=1;entryX=0.102;entryY=0.068;entryDx=0;entryDy=0;entryPerimeter=0;strokeColor=#FF0000;" parent="1" source="170" target="192" edge="1">
                    <mxGeometry relative="1" as="geometry">
                        <Array as="points">
                            <mxPoint x="922" y="1937"/>
                        </Array>
                    </mxGeometry>
                </mxCell>
                <mxCell id="213" style="edgeStyle=orthogonalEdgeStyle;html=1;entryX=0.105;entryY=0.143;entryDx=0;entryDy=0;entryPerimeter=0;strokeColor=#FF0000;" parent="1" source="170" target="192" edge="1">
                    <mxGeometry relative="1" as="geometry">
                        <Array as="points">
                            <mxPoint x="880" y="1966"/>
                            <mxPoint x="880" y="1966"/>
                        </Array>
                    </mxGeometry>
                </mxCell>
                <mxCell id="170" value="" style="ellipse;whiteSpace=wrap;html=1;" parent="1" vertex="1">
                    <mxGeometry x="685" y="1830.14" width="150" height="160" as="geometry"/>
                </mxCell>
                <mxCell id="171" style="edgeStyle=orthogonalEdgeStyle;html=1;strokeColor=#000000;entryX=-0.139;entryY=0.42;entryDx=0;entryDy=0;entryPerimeter=0;strokeWidth=3;" parent="1" source="172" target="182" edge="1">
                    <mxGeometry relative="1" as="geometry">
                        <mxPoint x="35" y="2000.14" as="targetPoint"/>
                        <Array as="points">
                            <mxPoint x="55" y="1800.14"/>
                            <mxPoint x="55" y="1995.14"/>
                        </Array>
                    </mxGeometry>
                </mxCell>
                <mxCell id="172" value="" style="shape=trapezoid;perimeter=trapezoidPerimeter;whiteSpace=wrap;html=1;fixedSize=1;rotation=-90;" parent="1" vertex="1">
                    <mxGeometry x="195" y="1780.14" width="80" height="40" as="geometry"/>
                </mxCell>
                <mxCell id="173" style="edgeStyle=orthogonalEdgeStyle;html=1;entryX=0.75;entryY=1;entryDx=0;entryDy=0;strokeWidth=3;" parent="1" source="174" target="172" edge="1">
                    <mxGeometry relative="1" as="geometry"/>
                </mxCell>
                <mxCell id="174" value="" style="shape=step;perimeter=stepPerimeter;whiteSpace=wrap;html=1;fixedSize=1;fontSize=9;direction=west;" parent="1" vertex="1">
                    <mxGeometry x="420.72" y="1700.14" width="58.55" height="86" as="geometry"/>
                </mxCell>
                <mxCell id="175" value="" style="edgeStyle=segmentEdgeStyle;endArrow=classic;html=1;curved=0;rounded=0;endSize=8;startSize=8;sourcePerimeterSpacing=0;targetPerimeterSpacing=0;exitX=1.101;exitY=0.172;exitDx=0;exitDy=0;exitPerimeter=0;entryX=0.122;entryY=0.258;entryDx=0;entryDy=0;entryPerimeter=0;strokeWidth=3;" parent="1" source="168" target="174" edge="1">
                    <mxGeometry width="100" relative="1" as="geometry">
                        <mxPoint x="485" y="1980.14" as="sourcePoint"/>
                        <mxPoint x="575" y="1770.14" as="targetPoint"/>
                        <Array as="points">
                            <mxPoint x="535" y="1997.14"/>
                            <mxPoint x="535" y="1764.14"/>
                        </Array>
                    </mxGeometry>
                </mxCell>
                <mxCell id="176" value="32" style="edgeLabel;html=1;align=center;verticalAlign=middle;resizable=0;points=[];" parent="175" vertex="1" connectable="0">
                    <mxGeometry x="0.2417" y="2" relative="1" as="geometry">
                        <mxPoint as="offset"/>
                    </mxGeometry>
                </mxCell>
                <mxCell id="177" style="edgeStyle=orthogonalEdgeStyle;html=1;entryX=-0.032;entryY=0.175;entryDx=0;entryDy=0;entryPerimeter=0;strokeWidth=3;" parent="1" source="179" target="168" edge="1">
                    <mxGeometry relative="1" as="geometry"/>
                </mxCell>
                <mxCell id="178" style="edgeStyle=orthogonalEdgeStyle;html=1;entryX=0.25;entryY=1;entryDx=0;entryDy=0;strokeWidth=3;dashed=1;" parent="1" source="179" target="172" edge="1">
                    <mxGeometry relative="1" as="geometry">
                        <mxPoint x="355" y="1810.14" as="targetPoint"/>
                        <Array as="points">
                            <mxPoint x="365" y="1973.14"/>
                            <mxPoint x="365" y="1820.14"/>
                        </Array>
                    </mxGeometry>
                </mxCell>
                <mxCell id="179" value="" style="shape=step;perimeter=stepPerimeter;whiteSpace=wrap;html=1;fixedSize=1;fontSize=9;direction=west;rotation=-180;" parent="1" vertex="1">
                    <mxGeometry x="265" y="1930.14" width="58.55" height="86" as="geometry"/>
                </mxCell>
                <mxCell id="180" style="edgeStyle=orthogonalEdgeStyle;html=1;entryX=0.161;entryY=0.821;entryDx=0;entryDy=0;entryPerimeter=0;strokeWidth=3;" parent="1" source="182" target="179" edge="1">
                    <mxGeometry relative="1" as="geometry"/>
                </mxCell>
                <mxCell id="181" style="edgeStyle=orthogonalEdgeStyle;html=1;strokeColor=#000000;strokeWidth=3;" parent="1" source="182" target="163" edge="1">
                    <mxGeometry relative="1" as="geometry">
                        <mxPoint x="205" y="2120.14" as="targetPoint"/>
                    </mxGeometry>
                </mxCell>
                <mxCell id="182" value="" style="whiteSpace=wrap;html=1;" parent="1" vertex="1">
                    <mxGeometry x="95" y="1940.14" width="30" height="130" as="geometry"/>
                </mxCell>
                <mxCell id="183" style="edgeStyle=orthogonalEdgeStyle;html=1;entryX=0.284;entryY=0.291;entryDx=0;entryDy=0;entryPerimeter=0;strokeWidth=3;" parent="1" source="184" target="179" edge="1">
                    <mxGeometry relative="1" as="geometry"/>
                </mxCell>
                <mxCell id="184" value="32'4d" style="ellipse;whiteSpace=wrap;html=1;" parent="1" vertex="1">
                    <mxGeometry x="185" y="1940.14" width="40" height="40" as="geometry"/>
                </mxCell>
                <mxCell id="185" value="Suma el offset" style="ellipse;shape=cloud;whiteSpace=wrap;html=1;" parent="1" vertex="1">
                    <mxGeometry x="365" y="1650.14" width="60" height="70" as="geometry"/>
                </mxCell>
                <mxCell id="186" value="Siftear por 2, es&lt;br&gt;equivalente a &lt;br&gt;multipleicar por 4,&lt;br&gt;util para alinear" style="ellipse;shape=cloud;whiteSpace=wrap;html=1;" parent="1" vertex="1">
                    <mxGeometry x="695" y="1650.14" width="160" height="130" as="geometry"/>
                </mxCell>
                <mxCell id="187" value="28" style="edgeStyle=orthogonalEdgeStyle;html=1;strokeColor=#000000;strokeWidth=2;" parent="1" source="188" target="190" edge="1">
                    <mxGeometry y="-15" relative="1" as="geometry">
                        <mxPoint as="offset"/>
                    </mxGeometry>
                </mxCell>
                <mxCell id="188" value="Shift Left2" style="ellipse;whiteSpace=wrap;html=1;" parent="1" vertex="1">
                    <mxGeometry x="575" y="1800.14" width="50" height="50" as="geometry"/>
                </mxCell>
                <mxCell id="189" value="32" style="edgeStyle=orthogonalEdgeStyle;html=1;entryX=0.122;entryY=0.73;entryDx=0;entryDy=0;entryPerimeter=0;strokeColor=#000000;strokeWidth=3;" parent="1" source="190" target="174" edge="1">
                    <mxGeometry relative="1" as="geometry"/>
                </mxCell>
                <mxCell id="190" value="Sign-extend" style="ellipse;whiteSpace=wrap;html=1;" parent="1" vertex="1">
                    <mxGeometry x="567.5" y="1690.14" width="65" height="60" as="geometry"/>
                </mxCell>
                <mxCell id="191" value="JAL" style="text;html=1;align=center;verticalAlign=middle;resizable=0;points=[];autosize=1;strokeColor=none;fillColor=none;fontSize=45;" parent="1" vertex="1">
                    <mxGeometry x="25" y="1650.14" width="100" height="70" as="geometry"/>
                </mxCell>
                <mxCell id="198" style="edgeStyle=orthogonalEdgeStyle;html=1;entryX=0;entryY=0.5;entryDx=0;entryDy=0;strokeColor=#FF0000;" parent="1" source="192" target="196" edge="1">
                    <mxGeometry relative="1" as="geometry">
                        <Array as="points">
                            <mxPoint x="1195" y="1950"/>
                        </Array>
                    </mxGeometry>
                </mxCell>
                <mxCell id="200" style="edgeStyle=orthogonalEdgeStyle;html=1;entryX=0.321;entryY=0.953;entryDx=0;entryDy=0;entryPerimeter=0;strokeColor=#000000;" parent="1" source="192" target="196" edge="1">
                    <mxGeometry relative="1" as="geometry">
                        <Array as="points">
                            <mxPoint x="1108" y="2197"/>
                        </Array>
                    </mxGeometry>
                </mxCell>
                <mxCell id="201" value="5" style="edgeLabel;html=1;align=center;verticalAlign=middle;resizable=0;points=[];" parent="200" vertex="1" connectable="0">
                    <mxGeometry x="0.1022" y="-1" relative="1" as="geometry">
                        <mxPoint as="offset"/>
                    </mxGeometry>
                </mxCell>
                <mxCell id="209" style="edgeStyle=orthogonalEdgeStyle;html=1;entryX=0;entryY=0.077;entryDx=0;entryDy=0;entryPerimeter=0;strokeColor=#FF0000;" parent="1" source="192" target="194" edge="1">
                    <mxGeometry relative="1" as="geometry">
                        <Array as="points">
                            <mxPoint x="1100" y="1940"/>
                            <mxPoint x="1100" y="1940"/>
                        </Array>
                    </mxGeometry>
                </mxCell>
                <mxCell id="215" style="edgeStyle=orthogonalEdgeStyle;html=1;entryX=0.073;entryY=0.146;entryDx=0;entryDy=0;entryPerimeter=0;strokeColor=#FF0000;" parent="1" source="192" target="194" edge="1">
                    <mxGeometry relative="1" as="geometry">
                        <Array as="points">
                            <mxPoint x="1100" y="1967"/>
                            <mxPoint x="1100" y="1967"/>
                        </Array>
                    </mxGeometry>
                </mxCell>
                <mxCell id="220" style="edgeStyle=orthogonalEdgeStyle;html=1;entryX=0.04;entryY=0.221;entryDx=0;entryDy=0;entryPerimeter=0;strokeColor=#000000;strokeWidth=3;" parent="1" source="192" target="194" edge="1">
                    <mxGeometry relative="1" as="geometry">
                        <Array as="points">
                            <mxPoint x="1160" y="2000"/>
                            <mxPoint x="1160" y="1996"/>
                        </Array>
                    </mxGeometry>
                </mxCell>
                <mxCell id="192" value="" style="whiteSpace=wrap;html=1;" parent="1" vertex="1">
                    <mxGeometry x="1010" y="1910" width="30" height="390" as="geometry"/>
                </mxCell>
                <mxCell id="207" style="edgeStyle=orthogonalEdgeStyle;html=1;strokeColor=#000000;entryX=0.006;entryY=0.777;entryDx=0;entryDy=0;entryPerimeter=0;" parent="1" source="194" target="206" edge="1">
                    <mxGeometry relative="1" as="geometry">
                        <mxPoint x="1460" y="2210" as="targetPoint"/>
                        <Array as="points">
                            <mxPoint x="1395" y="2210"/>
                            <mxPoint x="1395" y="2213"/>
                        </Array>
                    </mxGeometry>
                </mxCell>
                <mxCell id="210" style="edgeStyle=orthogonalEdgeStyle;html=1;entryX=0.093;entryY=0.077;entryDx=0;entryDy=0;entryPerimeter=0;strokeColor=#FF0000;" parent="1" source="194" target="206" edge="1">
                    <mxGeometry relative="1" as="geometry">
                        <Array as="points">
                            <mxPoint x="1350" y="1940"/>
                            <mxPoint x="1350" y="1940"/>
                        </Array>
                    </mxGeometry>
                </mxCell>
                <mxCell id="217" style="edgeStyle=orthogonalEdgeStyle;html=1;entryX=0;entryY=0.5;entryDx=0;entryDy=0;strokeColor=#FF0000;" parent="1" source="194" target="216" edge="1">
                    <mxGeometry relative="1" as="geometry">
                        <Array as="points">
                            <mxPoint x="1395" y="1970"/>
                        </Array>
                    </mxGeometry>
                </mxCell>
                <mxCell id="221" style="edgeStyle=orthogonalEdgeStyle;html=1;entryX=0.25;entryY=1;entryDx=0;entryDy=0;strokeColor=#000000;strokeWidth=3;" parent="1" source="194" target="216" edge="1">
                    <mxGeometry relative="1" as="geometry">
                        <Array as="points">
                            <mxPoint x="1343" y="2000"/>
                            <mxPoint x="1343" y="2103"/>
                        </Array>
                    </mxGeometry>
                </mxCell>
                <mxCell id="194" value="" style="whiteSpace=wrap;html=1;" parent="1" vertex="1">
                    <mxGeometry x="1280" y="1910" width="30" height="390" as="geometry"/>
                </mxCell>
                <mxCell id="204" style="edgeStyle=orthogonalEdgeStyle;html=1;entryX=-0.076;entryY=0.768;entryDx=0;entryDy=0;entryPerimeter=0;strokeColor=#000000;" parent="1" source="196" target="194" edge="1">
                    <mxGeometry relative="1" as="geometry"/>
                </mxCell>
                <mxCell id="196" value="" style="shape=trapezoid;perimeter=trapezoidPerimeter;whiteSpace=wrap;html=1;fixedSize=1;rotation=90;" parent="1" vertex="1">
                    <mxGeometry x="1160" y="2190" width="70" height="40" as="geometry"/>
                </mxCell>
                <mxCell id="203" style="edgeStyle=orthogonalEdgeStyle;html=1;entryX=0.75;entryY=1;entryDx=0;entryDy=0;strokeColor=#000000;" parent="1" source="202" target="196" edge="1">
                    <mxGeometry relative="1" as="geometry"/>
                </mxCell>
                <mxCell id="202" value="5'31d" style="ellipse;whiteSpace=wrap;html=1;" parent="1" vertex="1">
                    <mxGeometry x="1080" y="2220" width="50" height="50" as="geometry"/>
                </mxCell>
                <mxCell id="212" style="edgeStyle=orthogonalEdgeStyle;html=1;entryX=0.5;entryY=1;entryDx=0;entryDy=0;strokeColor=#FF0000;" parent="1" source="206" target="211" edge="1">
                    <mxGeometry relative="1" as="geometry">
                        <Array as="points">
                            <mxPoint x="1560" y="1940"/>
                            <mxPoint x="1560" y="2410"/>
                            <mxPoint x="820" y="2410"/>
                        </Array>
                    </mxGeometry>
                </mxCell>
                <mxCell id="223" style="edgeStyle=orthogonalEdgeStyle;html=1;entryX=0;entryY=0.75;entryDx=0;entryDy=0;strokeColor=#000000;strokeWidth=3;" parent="1" source="206" target="211" edge="1">
                    <mxGeometry relative="1" as="geometry">
                        <Array as="points">
                            <mxPoint x="1540" y="2120"/>
                            <mxPoint x="1540" y="2370"/>
                            <mxPoint x="720" y="2370"/>
                            <mxPoint x="720" y="2198"/>
                        </Array>
                    </mxGeometry>
                </mxCell>
                <mxCell id="225" style="edgeStyle=orthogonalEdgeStyle;html=1;entryX=0.005;entryY=0.87;entryDx=0;entryDy=0;entryPerimeter=0;strokeColor=#000000;strokeWidth=1;" parent="1" source="206" target="211" edge="1">
                    <mxGeometry relative="1" as="geometry">
                        <Array as="points">
                            <mxPoint x="1530" y="2210"/>
                            <mxPoint x="1530" y="2330"/>
                            <mxPoint x="730" y="2330"/>
                            <mxPoint x="730" y="2218"/>
                        </Array>
                    </mxGeometry>
                </mxCell>
                <mxCell id="206" value="" style="whiteSpace=wrap;html=1;" parent="1" vertex="1">
                    <mxGeometry x="1480" y="1910" width="30" height="390" as="geometry"/>
                </mxCell>
                <mxCell id="211" value="" style="whiteSpace=wrap;html=1;" parent="1" vertex="1">
                    <mxGeometry x="760" y="2070.14" width="120" height="170" as="geometry"/>
                </mxCell>
                <mxCell id="222" style="edgeStyle=orthogonalEdgeStyle;html=1;entryX=-0.005;entryY=0.539;entryDx=0;entryDy=0;entryPerimeter=0;strokeColor=#000000;strokeWidth=3;" parent="1" source="216" target="206" edge="1">
                    <mxGeometry relative="1" as="geometry"/>
                </mxCell>
                <mxCell id="216" value="" style="shape=trapezoid;perimeter=trapezoidPerimeter;whiteSpace=wrap;html=1;fixedSize=1;rotation=90;" parent="1" vertex="1">
                    <mxGeometry x="1360" y="2100" width="70" height="40" as="geometry"/>
                </mxCell>
                <mxCell id="226" style="edgeStyle=orthogonalEdgeStyle;html=1;entryX=0.75;entryY=1;entryDx=0;entryDy=0;strokeColor=#000000;strokeWidth=1;" parent="1" source="218" target="216" edge="1">
                    <mxGeometry relative="1" as="geometry"/>
                </mxCell>
                <mxCell id="218" value="" style="ellipse;shape=cloud;whiteSpace=wrap;html=1;" parent="1" vertex="1">
                    <mxGeometry x="1310" y="2120" width="50" height="40" as="geometry"/>
                </mxCell>
                <mxCell id="262" value="c" style="edgeStyle=orthogonalEdgeStyle;html=1;strokeWidth=3;" parent="1" source="263" target="269" edge="1">
                    <mxGeometry relative="1" as="geometry"/>
                </mxCell>
                <mxCell id="263" value="" style="whiteSpace=wrap;html=1;" parent="1" vertex="1">
                    <mxGeometry x="267.5" y="2905" width="90" height="140" as="geometry"/>
                </mxCell>
                <mxCell id="264" style="edgeStyle=orthogonalEdgeStyle;html=1;" parent="1" source="269" target="274" edge="1">
                    <mxGeometry relative="1" as="geometry">
                        <Array as="points">
                            <mxPoint x="627.5" y="2975"/>
                            <mxPoint x="627.5" y="2770"/>
                        </Array>
                    </mxGeometry>
                </mxCell>
                <mxCell id="265" value="6" style="edgeLabel;html=1;align=center;verticalAlign=middle;resizable=0;points=[];" parent="264" vertex="1" connectable="0">
                    <mxGeometry x="0.7688" y="-6" relative="1" as="geometry">
                        <mxPoint as="offset"/>
                    </mxGeometry>
                </mxCell>
                <mxCell id="268" style="edgeStyle=orthogonalEdgeStyle;html=1;entryX=0.04;entryY=0.223;entryDx=0;entryDy=0;entryPerimeter=0;strokeColor=#000000;strokeWidth=3;" parent="1" source="269" target="302" edge="1">
                    <mxGeometry relative="1" as="geometry">
                        <Array as="points">
                            <mxPoint x="720.5" y="2849.86"/>
                            <mxPoint x="720.5" y="2846.86"/>
                        </Array>
                    </mxGeometry>
                </mxCell>
                <mxCell id="322" style="edgeStyle=orthogonalEdgeStyle;html=1;entryX=0.02;entryY=0.325;entryDx=0;entryDy=0;entryPerimeter=0;strokeColor=#000000;strokeWidth=1;fontSize=10;" parent="1" source="269" target="316" edge="1">
                    <mxGeometry relative="1" as="geometry"/>
                </mxCell>
                <mxCell id="323" value="5" style="edgeLabel;html=1;align=center;verticalAlign=middle;resizable=0;points=[];fontSize=10;" parent="322" vertex="1" connectable="0">
                    <mxGeometry x="0.5682" y="-1" relative="1" as="geometry">
                        <mxPoint x="1" as="offset"/>
                    </mxGeometry>
                </mxCell>
                <mxCell id="269" value="" style="whiteSpace=wrap;html=1;" parent="1" vertex="1">
                    <mxGeometry x="417.5" y="2780" width="30" height="390" as="geometry"/>
                </mxCell>
                <mxCell id="270" style="edgeStyle=orthogonalEdgeStyle;html=1;entryX=1;entryY=0.5;entryDx=0;entryDy=0;strokeColor=#FF0000;" parent="1" source="274" target="276" edge="1">
                    <mxGeometry relative="1" as="geometry">
                        <mxPoint x="827.5" y="2420" as="targetPoint"/>
                        <Array as="points">
                            <mxPoint x="867.5" y="2770"/>
                            <mxPoint x="867.5" y="2500"/>
                            <mxPoint x="217.5" y="2500"/>
                        </Array>
                    </mxGeometry>
                </mxCell>
                <mxCell id="271" style="edgeStyle=orthogonalEdgeStyle;html=1;entryX=-0.012;entryY=0.103;entryDx=0;entryDy=0;entryPerimeter=0;strokeColor=#FF0000;" parent="1" source="274" target="302" edge="1">
                    <mxGeometry relative="1" as="geometry">
                        <Array as="points">
                            <mxPoint x="882.5" y="2799.86"/>
                            <mxPoint x="882.5" y="2799.86"/>
                        </Array>
                    </mxGeometry>
                </mxCell>
                <mxCell id="272" style="edgeStyle=orthogonalEdgeStyle;html=1;entryX=0.102;entryY=0.068;entryDx=0;entryDy=0;entryPerimeter=0;strokeColor=#FF0000;" parent="1" source="274" target="302" edge="1">
                    <mxGeometry relative="1" as="geometry">
                        <Array as="points">
                            <mxPoint x="904.5" y="2786.86"/>
                        </Array>
                    </mxGeometry>
                </mxCell>
                <mxCell id="273" style="edgeStyle=orthogonalEdgeStyle;html=1;entryX=0.105;entryY=0.143;entryDx=0;entryDy=0;entryPerimeter=0;strokeColor=#FF0000;" parent="1" source="274" target="302" edge="1">
                    <mxGeometry relative="1" as="geometry">
                        <Array as="points">
                            <mxPoint x="862.5" y="2815.86"/>
                            <mxPoint x="862.5" y="2815.86"/>
                        </Array>
                    </mxGeometry>
                </mxCell>
                <mxCell id="274" value="" style="ellipse;whiteSpace=wrap;html=1;" parent="1" vertex="1">
                    <mxGeometry x="667.5" y="2680" width="150" height="160" as="geometry"/>
                </mxCell>
                <mxCell id="275" style="edgeStyle=orthogonalEdgeStyle;html=1;strokeColor=#000000;entryX=-0.139;entryY=0.42;entryDx=0;entryDy=0;entryPerimeter=0;strokeWidth=3;" parent="1" source="276" target="286" edge="1">
                    <mxGeometry relative="1" as="geometry">
                        <mxPoint x="17.5" y="2850" as="targetPoint"/>
                        <Array as="points">
                            <mxPoint x="37.5" y="2650"/>
                            <mxPoint x="37.5" y="2845"/>
                        </Array>
                    </mxGeometry>
                </mxCell>
                <mxCell id="276" value="" style="shape=trapezoid;perimeter=trapezoidPerimeter;whiteSpace=wrap;html=1;fixedSize=1;rotation=-90;" parent="1" vertex="1">
                    <mxGeometry x="177.5" y="2630" width="80" height="40" as="geometry"/>
                </mxCell>
                <mxCell id="281" style="edgeStyle=orthogonalEdgeStyle;html=1;entryX=-0.032;entryY=0.175;entryDx=0;entryDy=0;entryPerimeter=0;strokeWidth=3;" parent="1" source="283" target="269" edge="1">
                    <mxGeometry relative="1" as="geometry"/>
                </mxCell>
                <mxCell id="282" style="edgeStyle=orthogonalEdgeStyle;html=1;entryX=0.25;entryY=1;entryDx=0;entryDy=0;strokeWidth=3;dashed=1;" parent="1" source="283" target="276" edge="1">
                    <mxGeometry relative="1" as="geometry">
                        <mxPoint x="337.5" y="2660" as="targetPoint"/>
                        <Array as="points">
                            <mxPoint x="347.5" y="2823"/>
                            <mxPoint x="347.5" y="2670"/>
                        </Array>
                    </mxGeometry>
                </mxCell>
                <mxCell id="283" value="" style="shape=step;perimeter=stepPerimeter;whiteSpace=wrap;html=1;fixedSize=1;fontSize=9;direction=west;rotation=-180;" parent="1" vertex="1">
                    <mxGeometry x="247.5" y="2780" width="58.55" height="86" as="geometry"/>
                </mxCell>
                <mxCell id="284" style="edgeStyle=orthogonalEdgeStyle;html=1;entryX=0.161;entryY=0.821;entryDx=0;entryDy=0;entryPerimeter=0;strokeWidth=3;" parent="1" source="286" target="283" edge="1">
                    <mxGeometry relative="1" as="geometry"/>
                </mxCell>
                <mxCell id="285" style="edgeStyle=orthogonalEdgeStyle;html=1;strokeColor=#000000;strokeWidth=3;" parent="1" source="286" target="263" edge="1">
                    <mxGeometry relative="1" as="geometry">
                        <mxPoint x="187.5" y="2970" as="targetPoint"/>
                    </mxGeometry>
                </mxCell>
                <mxCell id="286" value="" style="whiteSpace=wrap;html=1;" parent="1" vertex="1">
                    <mxGeometry x="77.5" y="2790" width="30" height="130" as="geometry"/>
                </mxCell>
                <mxCell id="287" style="edgeStyle=orthogonalEdgeStyle;html=1;entryX=0.284;entryY=0.291;entryDx=0;entryDy=0;entryPerimeter=0;strokeWidth=3;" parent="1" source="288" target="283" edge="1">
                    <mxGeometry relative="1" as="geometry"/>
                </mxCell>
                <mxCell id="288" value="32'4d" style="ellipse;whiteSpace=wrap;html=1;" parent="1" vertex="1">
                    <mxGeometry x="167.5" y="2790" width="40" height="40" as="geometry"/>
                </mxCell>
                <mxCell id="296" style="edgeStyle=orthogonalEdgeStyle;html=1;entryX=0;entryY=0.5;entryDx=0;entryDy=0;strokeColor=#FF0000;" parent="1" source="302" target="309" edge="1">
                    <mxGeometry relative="1" as="geometry">
                        <Array as="points">
                            <mxPoint x="1177.5" y="2799.86"/>
                        </Array>
                    </mxGeometry>
                </mxCell>
                <mxCell id="297" style="edgeStyle=orthogonalEdgeStyle;html=1;entryX=0.321;entryY=0.953;entryDx=0;entryDy=0;entryPerimeter=0;strokeColor=#000000;" parent="1" source="302" target="309" edge="1">
                    <mxGeometry relative="1" as="geometry">
                        <Array as="points">
                            <mxPoint x="1159" y="3050"/>
                        </Array>
                    </mxGeometry>
                </mxCell>
                <mxCell id="298" value="5" style="edgeLabel;html=1;align=center;verticalAlign=middle;resizable=0;points=[];" parent="297" vertex="1" connectable="0">
                    <mxGeometry x="0.1022" y="-1" relative="1" as="geometry">
                        <mxPoint as="offset"/>
                    </mxGeometry>
                </mxCell>
                <mxCell id="299" style="edgeStyle=orthogonalEdgeStyle;html=1;entryX=0;entryY=0.077;entryDx=0;entryDy=0;entryPerimeter=0;strokeColor=#FF0000;" parent="1" source="302" target="307" edge="1">
                    <mxGeometry relative="1" as="geometry">
                        <Array as="points">
                            <mxPoint x="1082.5" y="2789.86"/>
                            <mxPoint x="1082.5" y="2789.86"/>
                        </Array>
                    </mxGeometry>
                </mxCell>
                <mxCell id="300" style="edgeStyle=orthogonalEdgeStyle;html=1;entryX=0.073;entryY=0.146;entryDx=0;entryDy=0;entryPerimeter=0;strokeColor=#FF0000;" parent="1" source="302" target="307" edge="1">
                    <mxGeometry relative="1" as="geometry">
                        <Array as="points">
                            <mxPoint x="1082.5" y="2816.86"/>
                            <mxPoint x="1082.5" y="2816.86"/>
                        </Array>
                    </mxGeometry>
                </mxCell>
                <mxCell id="301" style="edgeStyle=orthogonalEdgeStyle;html=1;entryX=0.04;entryY=0.221;entryDx=0;entryDy=0;entryPerimeter=0;strokeColor=#000000;strokeWidth=3;" parent="1" source="302" target="307" edge="1">
                    <mxGeometry relative="1" as="geometry">
                        <Array as="points">
                            <mxPoint x="1142.5" y="2849.86"/>
                            <mxPoint x="1142.5" y="2845.86"/>
                        </Array>
                    </mxGeometry>
                </mxCell>
                <mxCell id="321" style="edgeStyle=orthogonalEdgeStyle;html=1;entryX=0.75;entryY=1;entryDx=0;entryDy=0;strokeColor=#000000;strokeWidth=1;fontSize=10;" parent="1" source="302" target="309" edge="1">
                    <mxGeometry relative="1" as="geometry">
                        <Array as="points">
                            <mxPoint x="1090" y="3050"/>
                            <mxPoint x="1090" y="3077"/>
                        </Array>
                    </mxGeometry>
                </mxCell>
                <mxCell id="326" style="edgeStyle=orthogonalEdgeStyle;html=1;entryX=0.5;entryY=1;entryDx=0;entryDy=0;strokeColor=#000000;strokeWidth=3;fontSize=10;" parent="1" source="302" target="324" edge="1">
                    <mxGeometry relative="1" as="geometry"/>
                </mxCell>
                <mxCell id="302" value="" style="whiteSpace=wrap;html=1;" parent="1" vertex="1">
                    <mxGeometry x="992.5" y="2759.86" width="30" height="390" as="geometry"/>
                </mxCell>
                <mxCell id="303" style="edgeStyle=orthogonalEdgeStyle;html=1;strokeColor=#000000;entryX=0.006;entryY=0.777;entryDx=0;entryDy=0;entryPerimeter=0;" parent="1" source="307" target="315" edge="1">
                    <mxGeometry relative="1" as="geometry">
                        <mxPoint x="1442.5" y="3059.86" as="targetPoint"/>
                        <Array as="points">
                            <mxPoint x="1377.5" y="3059.86"/>
                            <mxPoint x="1377.5" y="3062.86"/>
                        </Array>
                    </mxGeometry>
                </mxCell>
                <mxCell id="304" style="edgeStyle=orthogonalEdgeStyle;html=1;entryX=0.093;entryY=0.077;entryDx=0;entryDy=0;entryPerimeter=0;strokeColor=#FF0000;" parent="1" source="307" target="315" edge="1">
                    <mxGeometry relative="1" as="geometry">
                        <Array as="points">
                            <mxPoint x="1332.5" y="2789.86"/>
                            <mxPoint x="1332.5" y="2789.86"/>
                        </Array>
                    </mxGeometry>
                </mxCell>
                <mxCell id="305" style="edgeStyle=orthogonalEdgeStyle;html=1;entryX=0;entryY=0.5;entryDx=0;entryDy=0;strokeColor=#FF0000;" parent="1" source="307" target="318" edge="1">
                    <mxGeometry relative="1" as="geometry">
                        <Array as="points">
                            <mxPoint x="1377.5" y="2819.86"/>
                        </Array>
                    </mxGeometry>
                </mxCell>
                <mxCell id="306" style="edgeStyle=orthogonalEdgeStyle;html=1;entryX=0.25;entryY=1;entryDx=0;entryDy=0;strokeColor=#000000;strokeWidth=3;" parent="1" source="307" target="318" edge="1">
                    <mxGeometry relative="1" as="geometry">
                        <Array as="points">
                            <mxPoint x="1325.5" y="2849.86"/>
                            <mxPoint x="1325.5" y="2952.86"/>
                        </Array>
                    </mxGeometry>
                </mxCell>
                <mxCell id="307" value="" style="whiteSpace=wrap;html=1;" parent="1" vertex="1">
                    <mxGeometry x="1262.5" y="2759.86" width="30" height="390" as="geometry"/>
                </mxCell>
                <mxCell id="308" style="edgeStyle=orthogonalEdgeStyle;html=1;entryX=-0.076;entryY=0.768;entryDx=0;entryDy=0;entryPerimeter=0;strokeColor=#000000;" parent="1" source="309" target="307" edge="1">
                    <mxGeometry relative="1" as="geometry"/>
                </mxCell>
                <mxCell id="309" value="" style="shape=trapezoid;perimeter=trapezoidPerimeter;whiteSpace=wrap;html=1;fixedSize=1;rotation=90;" parent="1" vertex="1">
                    <mxGeometry x="1142.5" y="3039.86" width="70" height="40" as="geometry"/>
                </mxCell>
                <mxCell id="312" style="edgeStyle=orthogonalEdgeStyle;html=1;entryX=0.5;entryY=1;entryDx=0;entryDy=0;strokeColor=#FF0000;" parent="1" source="315" target="316" edge="1">
                    <mxGeometry relative="1" as="geometry">
                        <Array as="points">
                            <mxPoint x="1542.5" y="2789.86"/>
                            <mxPoint x="1542.5" y="3259.86"/>
                            <mxPoint x="802.5" y="3259.86"/>
                        </Array>
                    </mxGeometry>
                </mxCell>
                <mxCell id="313" style="edgeStyle=orthogonalEdgeStyle;html=1;entryX=0;entryY=0.75;entryDx=0;entryDy=0;strokeColor=#000000;strokeWidth=3;" parent="1" source="315" target="316" edge="1">
                    <mxGeometry relative="1" as="geometry">
                        <Array as="points">
                            <mxPoint x="1522.5" y="2969.86"/>
                            <mxPoint x="1522.5" y="3219.86"/>
                            <mxPoint x="702.5" y="3219.86"/>
                            <mxPoint x="702.5" y="3047.86"/>
                        </Array>
                    </mxGeometry>
                </mxCell>
                <mxCell id="314" style="edgeStyle=orthogonalEdgeStyle;html=1;entryX=0.005;entryY=0.87;entryDx=0;entryDy=0;entryPerimeter=0;strokeColor=#000000;strokeWidth=1;" parent="1" source="315" target="316" edge="1">
                    <mxGeometry relative="1" as="geometry">
                        <Array as="points">
                            <mxPoint x="1512.5" y="3059.86"/>
                            <mxPoint x="1512.5" y="3179.86"/>
                            <mxPoint x="712.5" y="3179.86"/>
                            <mxPoint x="712.5" y="3067.86"/>
                        </Array>
                    </mxGeometry>
                </mxCell>
                <mxCell id="315" value="" style="whiteSpace=wrap;html=1;" parent="1" vertex="1">
                    <mxGeometry x="1462.5" y="2759.86" width="30" height="390" as="geometry"/>
                </mxCell>
                <mxCell id="325" style="edgeStyle=orthogonalEdgeStyle;html=1;entryX=0;entryY=0.5;entryDx=0;entryDy=0;strokeColor=#000000;strokeWidth=3;fontSize=10;" parent="1" source="316" target="302" edge="1">
                    <mxGeometry relative="1" as="geometry">
                        <Array as="points">
                            <mxPoint x="900" y="2955"/>
                            <mxPoint x="900" y="2955"/>
                        </Array>
                    </mxGeometry>
                </mxCell>
                <mxCell id="316" value="" style="whiteSpace=wrap;html=1;" parent="1" vertex="1">
                    <mxGeometry x="742.5" y="2920" width="120" height="170" as="geometry"/>
                </mxCell>
                <mxCell id="317" style="edgeStyle=orthogonalEdgeStyle;html=1;entryX=-0.005;entryY=0.539;entryDx=0;entryDy=0;entryPerimeter=0;strokeColor=#000000;strokeWidth=3;" parent="1" source="318" target="315" edge="1">
                    <mxGeometry relative="1" as="geometry"/>
                </mxCell>
                <mxCell id="318" value="" style="shape=trapezoid;perimeter=trapezoidPerimeter;whiteSpace=wrap;html=1;fixedSize=1;rotation=90;" parent="1" vertex="1">
                    <mxGeometry x="1342.5" y="2949.86" width="70" height="40" as="geometry"/>
                </mxCell>
                <mxCell id="319" style="edgeStyle=orthogonalEdgeStyle;html=1;entryX=0.75;entryY=1;entryDx=0;entryDy=0;strokeColor=#000000;strokeWidth=1;" parent="1" source="320" target="318" edge="1">
                    <mxGeometry relative="1" as="geometry"/>
                </mxCell>
                <mxCell id="320" value="" style="ellipse;shape=cloud;whiteSpace=wrap;html=1;" parent="1" vertex="1">
                    <mxGeometry x="1292.5" y="2969.86" width="50" height="40" as="geometry"/>
                </mxCell>
                <mxCell id="327" style="edgeStyle=orthogonalEdgeStyle;html=1;strokeColor=#000000;strokeWidth=3;fontSize=10;entryX=0.75;entryY=1;entryDx=0;entryDy=0;" parent="1" source="324" target="276" edge="1">
                    <mxGeometry relative="1" as="geometry">
                        <mxPoint x="1100" y="2690" as="targetPoint"/>
                        <Array as="points">
                            <mxPoint x="1130" y="2955"/>
                            <mxPoint x="1130" y="2630"/>
                        </Array>
                    </mxGeometry>
                </mxCell>
                <mxCell id="324" value="" style="shape=trapezoid;perimeter=trapezoidPerimeter;whiteSpace=wrap;html=1;fixedSize=1;rotation=90;" parent="1" vertex="1">
                    <mxGeometry x="1040" y="2937.3599999999997" width="80" height="35" as="geometry"/>
                </mxCell>
                <mxCell id="329" value="JALR" style="text;html=1;align=center;verticalAlign=middle;resizable=0;points=[];autosize=1;strokeColor=none;fillColor=none;fontSize=45;" parent="1" vertex="1">
                    <mxGeometry x="30" y="2420" width="130" height="70" as="geometry"/>
                </mxCell>
                <mxCell id="330" value="c" style="edgeStyle=orthogonalEdgeStyle;html=1;strokeWidth=3;" parent="1" source="331" target="336" edge="1">
                    <mxGeometry relative="1" as="geometry"/>
                </mxCell>
                <mxCell id="331" value="" style="whiteSpace=wrap;html=1;" parent="1" vertex="1">
                    <mxGeometry x="262.5" y="3895" width="90" height="140" as="geometry"/>
                </mxCell>
                <mxCell id="332" style="edgeStyle=orthogonalEdgeStyle;html=1;" parent="1" source="336" target="338" edge="1">
                    <mxGeometry relative="1" as="geometry">
                        <Array as="points">
                            <mxPoint x="520" y="3965"/>
                            <mxPoint x="520" y="3740"/>
                        </Array>
                    </mxGeometry>
                </mxCell>
                <mxCell id="333" value="6" style="edgeLabel;html=1;align=center;verticalAlign=middle;resizable=0;points=[];" parent="332" vertex="1" connectable="0">
                    <mxGeometry x="0.7688" y="-6" relative="1" as="geometry">
                        <mxPoint as="offset"/>
                    </mxGeometry>
                </mxCell>
                <mxCell id="361" style="edgeStyle=orthogonalEdgeStyle;html=1;strokeColor=#000000;strokeWidth=3;fontSize=10;entryX=-0.07;entryY=0.174;entryDx=0;entryDy=0;entryPerimeter=0;" parent="1" source="336" target="360" edge="1">
                    <mxGeometry relative="1" as="geometry">
                        <mxPoint x="890" y="3860" as="targetPoint"/>
                        <Array as="points">
                            <mxPoint x="681" y="3840"/>
                            <mxPoint x="681" y="3838"/>
                        </Array>
                    </mxGeometry>
                </mxCell>
                <mxCell id="365" style="edgeStyle=orthogonalEdgeStyle;html=1;entryX=0.168;entryY=0.903;entryDx=0;entryDy=0;entryPerimeter=0;strokeWidth=3;" parent="1" source="336" target="360" edge="1">
                    <mxGeometry relative="1" as="geometry">
                        <Array as="points">
                            <mxPoint x="520" y="3965"/>
                            <mxPoint x="520" y="4122"/>
                        </Array>
                    </mxGeometry>
                </mxCell>
                <mxCell id="367" style="edgeStyle=orthogonalEdgeStyle;html=1;entryX=0;entryY=0.25;entryDx=0;entryDy=0;strokeWidth=1;" parent="1" source="336" target="366" edge="1">
                    <mxGeometry relative="1" as="geometry">
                        <Array as="points">
                            <mxPoint x="520" y="3965"/>
                            <mxPoint x="520" y="3938"/>
                        </Array>
                    </mxGeometry>
                </mxCell>
                <mxCell id="368" style="edgeStyle=orthogonalEdgeStyle;html=1;entryX=0;entryY=0.75;entryDx=0;entryDy=0;strokeWidth=1;" parent="1" source="336" target="366" edge="1">
                    <mxGeometry relative="1" as="geometry">
                        <Array as="points">
                            <mxPoint x="520" y="3965"/>
                            <mxPoint x="520" y="4023"/>
                        </Array>
                    </mxGeometry>
                </mxCell>
                <mxCell id="336" value="" style="whiteSpace=wrap;html=1;" parent="1" vertex="1">
                    <mxGeometry x="412.5" y="3770" width="30" height="390" as="geometry"/>
                </mxCell>
                <mxCell id="374" style="edgeStyle=orthogonalEdgeStyle;html=1;entryX=-0.059;entryY=0.014;entryDx=0;entryDy=0;entryPerimeter=0;strokeWidth=1;strokeColor=#FF0000;" parent="1" source="338" target="360" edge="1">
                    <mxGeometry relative="1" as="geometry">
                        <Array as="points">
                            <mxPoint x="819" y="3770"/>
                            <mxPoint x="819" y="3775"/>
                        </Array>
                    </mxGeometry>
                </mxCell>
                <mxCell id="375" style="edgeStyle=orthogonalEdgeStyle;html=1;entryX=-0.083;entryY=0.064;entryDx=0;entryDy=0;entryPerimeter=0;strokeWidth=1;strokeColor=#FF0000;" parent="1" source="338" target="360" edge="1">
                    <mxGeometry relative="1" as="geometry">
                        <Array as="points">
                            <mxPoint x="819" y="3790"/>
                            <mxPoint x="819" y="3795"/>
                        </Array>
                    </mxGeometry>
                </mxCell>
                <mxCell id="338" value="" style="ellipse;whiteSpace=wrap;html=1;" parent="1" vertex="1">
                    <mxGeometry x="567.5" y="3660" width="150" height="160" as="geometry"/>
                </mxCell>
                <mxCell id="339" style="edgeStyle=orthogonalEdgeStyle;html=1;strokeColor=#000000;entryX=-0.139;entryY=0.42;entryDx=0;entryDy=0;entryPerimeter=0;strokeWidth=3;" parent="1" source="340" target="350" edge="1">
                    <mxGeometry relative="1" as="geometry">
                        <mxPoint x="12.5" y="3840" as="targetPoint"/>
                        <Array as="points">
                            <mxPoint x="32.5" y="3640"/>
                            <mxPoint x="32.5" y="3835"/>
                        </Array>
                    </mxGeometry>
                </mxCell>
                <mxCell id="340" value="" style="shape=trapezoid;perimeter=trapezoidPerimeter;whiteSpace=wrap;html=1;fixedSize=1;rotation=-90;" parent="1" vertex="1">
                    <mxGeometry x="172.5" y="3620" width="80" height="40" as="geometry"/>
                </mxCell>
                <mxCell id="386" style="edgeStyle=orthogonalEdgeStyle;html=1;entryX=0.75;entryY=1;entryDx=0;entryDy=0;strokeColor=#000000;strokeWidth=3;" parent="1" source="342" target="340" edge="1">
                    <mxGeometry relative="1" as="geometry"/>
                </mxCell>
                <mxCell id="342" value="" style="shape=step;perimeter=stepPerimeter;whiteSpace=wrap;html=1;fixedSize=1;fontSize=9;direction=west;" parent="1" vertex="1">
                    <mxGeometry x="1022.5" y="3500" width="58.55" height="86" as="geometry"/>
                </mxCell>
                <mxCell id="345" style="edgeStyle=orthogonalEdgeStyle;html=1;entryX=-0.032;entryY=0.175;entryDx=0;entryDy=0;entryPerimeter=0;strokeWidth=3;" parent="1" source="347" target="336" edge="1">
                    <mxGeometry relative="1" as="geometry"/>
                </mxCell>
                <mxCell id="346" style="edgeStyle=orthogonalEdgeStyle;html=1;entryX=0.25;entryY=1;entryDx=0;entryDy=0;strokeWidth=3;dashed=1;" parent="1" source="347" target="340" edge="1">
                    <mxGeometry relative="1" as="geometry">
                        <mxPoint x="332.5" y="3650" as="targetPoint"/>
                        <Array as="points">
                            <mxPoint x="342.5" y="3813"/>
                            <mxPoint x="342.5" y="3660"/>
                        </Array>
                    </mxGeometry>
                </mxCell>
                <mxCell id="347" value="" style="shape=step;perimeter=stepPerimeter;whiteSpace=wrap;html=1;fixedSize=1;fontSize=9;direction=west;rotation=-180;" parent="1" vertex="1">
                    <mxGeometry x="242.5" y="3770" width="58.55" height="86" as="geometry"/>
                </mxCell>
                <mxCell id="348" style="edgeStyle=orthogonalEdgeStyle;html=1;entryX=0.161;entryY=0.821;entryDx=0;entryDy=0;entryPerimeter=0;strokeWidth=3;" parent="1" source="350" target="347" edge="1">
                    <mxGeometry relative="1" as="geometry"/>
                </mxCell>
                <mxCell id="349" style="edgeStyle=orthogonalEdgeStyle;html=1;strokeColor=#000000;strokeWidth=3;" parent="1" source="350" target="331" edge="1">
                    <mxGeometry relative="1" as="geometry">
                        <mxPoint x="182.5" y="3960" as="targetPoint"/>
                    </mxGeometry>
                </mxCell>
                <mxCell id="350" value="" style="whiteSpace=wrap;html=1;" parent="1" vertex="1">
                    <mxGeometry x="72.5" y="3780" width="30" height="130" as="geometry"/>
                </mxCell>
                <mxCell id="351" style="edgeStyle=orthogonalEdgeStyle;html=1;entryX=0.284;entryY=0.291;entryDx=0;entryDy=0;entryPerimeter=0;strokeWidth=3;" parent="1" source="352" target="347" edge="1">
                    <mxGeometry relative="1" as="geometry"/>
                </mxCell>
                <mxCell id="352" value="4" style="ellipse;whiteSpace=wrap;html=1;" parent="1" vertex="1">
                    <mxGeometry x="162.5" y="3780" width="40" height="40" as="geometry"/>
                </mxCell>
                <mxCell id="355" value="" style="edgeStyle=orthogonalEdgeStyle;html=1;strokeColor=#000000;strokeWidth=2;" parent="1" source="356" target="358" edge="1">
                    <mxGeometry y="-15" relative="1" as="geometry">
                        <mxPoint as="offset"/>
                    </mxGeometry>
                </mxCell>
                <mxCell id="356" value="Shift Left2" style="ellipse;whiteSpace=wrap;html=1;" parent="1" vertex="1">
                    <mxGeometry x="1176.78" y="3600" width="50" height="50" as="geometry"/>
                </mxCell>
                <mxCell id="357" value="32" style="edgeStyle=orthogonalEdgeStyle;html=1;entryX=0.122;entryY=0.73;entryDx=0;entryDy=0;entryPerimeter=0;strokeColor=#000000;strokeWidth=3;" parent="1" source="358" target="342" edge="1">
                    <mxGeometry relative="1" as="geometry"/>
                </mxCell>
                <mxCell id="358" value="Sign-extend" style="ellipse;whiteSpace=wrap;html=1;" parent="1" vertex="1">
                    <mxGeometry x="1169.28" y="3490" width="65" height="60" as="geometry"/>
                </mxCell>
                <mxCell id="359" value="BEQ" style="text;html=1;align=center;verticalAlign=middle;resizable=0;points=[];autosize=1;strokeColor=none;fillColor=none;fontSize=45;" parent="1" vertex="1">
                    <mxGeometry x="-12.5" y="3510" width="120" height="70" as="geometry"/>
                </mxCell>
                <mxCell id="362" style="edgeStyle=orthogonalEdgeStyle;html=1;entryX=0.093;entryY=0.262;entryDx=0;entryDy=0;entryPerimeter=0;strokeColor=#000000;strokeWidth=3;fontSize=10;" parent="1" source="360" target="342" edge="1">
                    <mxGeometry relative="1" as="geometry">
                        <Array as="points">
                            <mxPoint x="1120" y="3840"/>
                            <mxPoint x="1120" y="3564"/>
                        </Array>
                    </mxGeometry>
                </mxCell>
                <mxCell id="376" style="edgeStyle=orthogonalEdgeStyle;html=1;entryX=0.5;entryY=1;entryDx=0;entryDy=0;strokeColor=#000000;strokeWidth=3;" parent="1" source="360" target="356" edge="1">
                    <mxGeometry relative="1" as="geometry">
                        <Array as="points">
                            <mxPoint x="1202" y="4120"/>
                        </Array>
                    </mxGeometry>
                </mxCell>
                <mxCell id="379" style="edgeStyle=orthogonalEdgeStyle;html=1;entryX=0.086;entryY=0.221;entryDx=0;entryDy=0;entryPerimeter=0;strokeColor=#000000;strokeWidth=3;" parent="1" source="360" target="377" edge="1">
                    <mxGeometry relative="1" as="geometry">
                        <Array as="points">
                            <mxPoint x="970" y="3940"/>
                            <mxPoint x="970" y="3940"/>
                        </Array>
                    </mxGeometry>
                </mxCell>
                <mxCell id="380" style="edgeStyle=orthogonalEdgeStyle;html=1;entryX=0.033;entryY=0.891;entryDx=0;entryDy=0;entryPerimeter=0;strokeColor=#000000;strokeWidth=3;" parent="1" source="360" target="377" edge="1">
                    <mxGeometry relative="1" as="geometry">
                        <Array as="points">
                            <mxPoint x="986" y="4030"/>
                            <mxPoint x="986" y="4031"/>
                        </Array>
                    </mxGeometry>
                </mxCell>
                <mxCell id="382" style="edgeStyle=orthogonalEdgeStyle;html=1;entryX=0;entryY=0.5;entryDx=0;entryDy=0;strokeColor=#FF0000;strokeWidth=1;" parent="1" source="360" target="363" edge="1">
                    <mxGeometry relative="1" as="geometry">
                        <Array as="points">
                            <mxPoint x="1363" y="3780"/>
                        </Array>
                    </mxGeometry>
                </mxCell>
                <mxCell id="383" style="edgeStyle=orthogonalEdgeStyle;html=1;entryX=0;entryY=0.5;entryDx=0;entryDy=0;strokeColor=#FF0000;strokeWidth=1;" parent="1" source="360" target="381" edge="1">
                    <mxGeometry relative="1" as="geometry">
                        <Array as="points">
                            <mxPoint x="1520" y="3800"/>
                        </Array>
                    </mxGeometry>
                </mxCell>
                <mxCell id="360" value="" style="whiteSpace=wrap;html=1;" parent="1" vertex="1">
                    <mxGeometry x="920" y="3770" width="30" height="390" as="geometry"/>
                </mxCell>
                <mxCell id="387" style="edgeStyle=orthogonalEdgeStyle;html=1;strokeColor=#FF0000;strokeWidth=1;" parent="1" source="363" target="340" edge="1">
                    <mxGeometry relative="1" as="geometry"/>
                </mxCell>
                <mxCell id="363" value="" style="shape=trapezoid;perimeter=trapezoidPerimeter;whiteSpace=wrap;html=1;fixedSize=1;rotation=-90;" parent="1" vertex="1">
                    <mxGeometry x="1312.5" y="3420" width="100" height="50" as="geometry"/>
                </mxCell>
                <mxCell id="370" style="edgeStyle=orthogonalEdgeStyle;html=1;entryX=-0.059;entryY=0.433;entryDx=0;entryDy=0;entryPerimeter=0;strokeWidth=3;" parent="1" source="366" target="360" edge="1">
                    <mxGeometry relative="1" as="geometry">
                        <Array as="points">
                            <mxPoint x="840" y="3940"/>
                            <mxPoint x="840" y="3939"/>
                        </Array>
                    </mxGeometry>
                </mxCell>
                <mxCell id="371" style="edgeStyle=orthogonalEdgeStyle;html=1;entryX=0.021;entryY=0.67;entryDx=0;entryDy=0;entryPerimeter=0;strokeWidth=3;" parent="1" source="366" target="360" edge="1">
                    <mxGeometry relative="1" as="geometry">
                        <Array as="points">
                            <mxPoint x="840" y="4030"/>
                            <mxPoint x="840" y="4031"/>
                        </Array>
                    </mxGeometry>
                </mxCell>
                <mxCell id="366" value="" style="whiteSpace=wrap;html=1;" parent="1" vertex="1">
                    <mxGeometry x="640" y="3895" width="120" height="170" as="geometry"/>
                </mxCell>
                <mxCell id="385" style="edgeStyle=orthogonalEdgeStyle;html=1;entryX=0.75;entryY=1;entryDx=0;entryDy=0;strokeColor=#000000;strokeWidth=1;" parent="1" source="377" target="381" edge="1">
                    <mxGeometry relative="1" as="geometry">
                        <Array as="points">
                            <mxPoint x="1590" y="3978"/>
                            <mxPoint x="1590" y="3420"/>
                        </Array>
                    </mxGeometry>
                </mxCell>
                <mxCell id="377" value="" style="shape=step;perimeter=stepPerimeter;whiteSpace=wrap;html=1;fixedSize=1;fontSize=9;direction=west;rotation=-180;" parent="1" vertex="1">
                    <mxGeometry x="1320" y="3910" width="100" height="136" as="geometry"/>
                </mxCell>
                <mxCell id="388" style="edgeStyle=orthogonalEdgeStyle;html=1;entryX=0.25;entryY=1;entryDx=0;entryDy=0;strokeColor=#000000;strokeWidth=1;" parent="1" source="381" target="363" edge="1">
                    <mxGeometry relative="1" as="geometry"/>
                </mxCell>
                <mxCell id="381" value="" style="shape=trapezoid;perimeter=trapezoidPerimeter;whiteSpace=wrap;html=1;fixedSize=1;rotation=-90;" parent="1" vertex="1">
                    <mxGeometry x="1470" y="3420" width="100" height="50" as="geometry"/>
                </mxCell>
                <mxCell id="390" style="edgeStyle=orthogonalEdgeStyle;html=1;entryX=0.602;entryY=0.944;entryDx=0;entryDy=0;entryPerimeter=0;strokeColor=#000000;strokeWidth=1;" parent="1" source="389" target="363" edge="1">
                    <mxGeometry relative="1" as="geometry"/>
                </mxCell>
                <mxCell id="389" value="1'b0" style="ellipse;whiteSpace=wrap;html=1;" parent="1" vertex="1">
                    <mxGeometry x="1420" y="3380" width="50" height="50" as="geometry"/>
                </mxCell>
            </root>
        </mxGraphModel>
    </diagram>
</mxfile>